<svg xmlns="http://www.w3.org/2000/svg" xmlns:xlink="http://www.w3.org/1999/xlink" width="16" height="16" viewBox="0 0 16 16"><defs><path id="rm0xa" d="M88.8 10228.98a6 6 0 0 1 10.4 0c.54.93.8 1.93.8 3.02s-.26 2.1-.8 3.02a5.98 5.98 0 0 1-8.22 2.18 5.98 5.98 0 0 1-2.99-5.2c0-1.09.27-2.1.8-3.02zm2.05 3.37l3.55 3.55c.1.1.22.15.35.15.14 0 .25-.05.35-.15l.8-.8c.1-.1.15-.21.15-.35a.49.49 0 0 0-.15-.35l-2.4-2.4 2.4-2.4c.1-.1.15-.22.15-.35a.48.48 0 0 0-.15-.36l-.8-.8a.48.48 0 0 0-.35-.14.48.48 0 0 0-.35.15l-3.55 3.55c-.1.1-.15.22-.15.35 0 .14.05.25.15.35z"/></defs><g><g transform="translate(-86 -10224)"><use fill="#5e7f78" xlink:href="#rm0xa"/></g></g></svg>