<svg xmlns="http://www.w3.org/2000/svg" xmlns:xlink="http://www.w3.org/1999/xlink" width="16" height="16" viewBox="0 0 16 16"><defs><path id="b4kea" d="M810 10232a5.98 5.98 0 0 1-6 6 5.98 5.98 0 0 1-5.2-9.02 6 6 0 0 1 10.4 0c.54.93.8 1.93.8 3.02zm-2.7 0a.48.48 0 0 0-.15-.35l-3.55-3.55a.48.48 0 0 0-.35-.15.48.48 0 0 0-.35.15l-.8.8c-.1.1-.15.21-.15.35 0 .13.05.25.15.35l2.4 2.4-2.4 2.4a.48.48 0 0 0 0 .7l.8.8c.1.1.21.15.35.15.13 0 .25-.05.35-.15l3.55-3.55c.1-.1.15-.21.15-.35z"/></defs><g><g transform="translate(-796 -10224)"><use fill="currentColor" xlink:href="#b4kea"/></g></g></svg>