<svg xmlns="http://www.w3.org/2000/svg" xmlns:xlink="http://www.w3.org/1999/xlink" width="24" height="24" viewBox="0 0 24 24"><defs><path id="e53da" d="M60 1636.4v18.6H40v-18.6h5.2c.17-.8.86-1.4 1.7-1.4.95 0 1.72.79 1.72 1.75 0 .97-.77 1.76-1.72 1.76a.35.35 0 0 1-.35-.35c0-.2.16-.35.35-.35.57 0 1.03-.48 1.03-1.06 0-.58-.46-1.05-1.03-1.05-.45 0-.83.3-.97.7h.62c.2 0 .35.16.35.35 0 .2-.16.35-.35.35H40.7v3.16h18.62v-3.16h-4.52c-.16.8-.85 1.4-1.69 1.4a.35.35 0 0 1-.34-.34c0-.2.15-.35.34-.35.57 0 1.04-.48 1.04-1.06 0-.58-.47-1.05-1.04-1.05a.35.35 0 0 1-.34-.35c0-.2.15-.35.34-.35.84 0 1.53.6 1.7 1.4zm-.69 4.56H40.69v13.34h18.62zm-10.69-5.61c0-.2.15-.35.35-.35.95 0 1.72.79 1.72 1.75 0 .97-.77 1.76-1.72 1.76a.35.35 0 0 1-.35-.35c0-.2.15-.35.35-.35.57 0 1.03-.48 1.03-1.06 0-.58-.46-1.05-1.03-1.05a.35.35 0 0 1-.35-.35zm2.07 0c0-.2.15-.35.34-.35.96 0 1.73.79 1.73 1.75 0 .97-.77 1.76-1.73 1.76a.35.35 0 0 1-.34-.35c0-.2.15-.35.34-.35.57 0 1.04-.48 1.04-1.06 0-.58-.47-1.05-1.04-1.05a.35.35 0 0 1-.34-.35zm-3.1 7.72c.19 0 .34.16.34.35 0 .2-.15.35-.34.35a.35.35 0 0 1-.35-.35c0-.2.16-.35.35-.35zm2.41 0c.19 0 .34.16.34.35 0 .2-.15.35-.34.35a.35.35 0 0 1-.34-.35c0-.2.15-.35.34-.35zm2.41 0c.2 0 .35.16.35.35a.35.35 0 1 1-.69 0c0-.2.15-.35.34-.35zm2.42 0c.19 0 .34.16.34.35 0 .2-.15.35-.34.35a.35.35 0 0 1-.35-.35c0-.2.16-.35.35-.35zm2.41 0c.2 0 .35.16.35.35a.35.35 0 1 1-.69 0c0-.2.15-.35.34-.35zm-14.48 2.8c.19 0 .34.17.34.36 0 .2-.15.35-.34.35a.35.35 0 0 1-.35-.35c0-.2.16-.35.35-.35zm2.41 0c.2 0 .35.17.35.36a.35.35 0 0 1-.69 0c0-.2.15-.35.34-.35zm2.42 0c.19 0 .34.17.34.36 0 .2-.15.35-.34.35a.35.35 0 0 1-.35-.35c0-.2.16-.35.35-.35zm2.41 0c.19 0 .34.17.34.36 0 .2-.15.35-.34.35a.35.35 0 0 1-.34-.35c0-.2.15-.35.34-.35zm2.41 0c.2 0 .35.17.35.36a.35.35 0 0 1-.69 0c0-.2.15-.35.34-.35zm2.42 0c.19 0 .34.17.34.36 0 .2-.15.35-.34.35a.35.35 0 0 1-.35-.35c0-.2.16-.35.35-.35zm2.41 0c.2 0 .35.17.35.36a.35.35 0 0 1-.69 0c0-.2.15-.35.34-.35zm-14.48 2.46c.19 0 .34.16.34.35 0 .2-.15.36-.34.36a.35.35 0 0 1-.35-.36c0-.19.16-.35.35-.35zm2.41 0c.2 0 .35.16.35.35 0 .2-.16.36-.35.36a.35.35 0 0 1-.34-.36c0-.19.15-.35.34-.35zm2.42 0c.19 0 .34.16.34.35 0 .2-.15.36-.34.36a.35.35 0 0 1-.35-.36c0-.19.16-.35.35-.35zm2.41 0c.19 0 .34.16.34.35 0 .2-.15.36-.34.36a.35.35 0 0 1-.34-.36c0-.19.15-.35.34-.35zm2.41 0c.2 0 .35.16.35.35 0 .2-.16.36-.35.36a.35.35 0 0 1-.34-.36c0-.19.15-.35.34-.35zm2.42 0c.19 0 .34.16.34.35 0 .2-.15.36-.34.36a.35.35 0 0 1-.35-.36c0-.19.16-.35.35-.35zm2.41 0c.2 0 .35.16.35.35 0 .2-.16.36-.35.36a.35.35 0 0 1-.34-.36c0-.19.15-.35.34-.35zm-14.48 2.81c.19 0 .34.16.34.35 0 .2-.15.35-.34.35a.35.35 0 0 1-.35-.35c0-.2.16-.35.35-.35zm2.41 0c.2 0 .35.16.35.35a.35.35 0 0 1-.69 0c0-.2.15-.35.34-.35zm2.42 0c.19 0 .34.16.34.35 0 .2-.15.35-.34.35a.35.35 0 0 1-.35-.35c0-.2.16-.35.35-.35zm2.41 0c.19 0 .34.16.34.35 0 .2-.15.35-.34.35a.35.35 0 0 1-.34-.35c0-.2.15-.35.34-.35zm2.41 0c.2 0 .35.16.35.35a.35.35 0 0 1-.69 0c0-.2.15-.35.34-.35z"/></defs><g><g transform="translate(-38 -1633)"><use fill="#4b8078" xlink:href="#e53da"/></g></g></svg>