<svg xmlns="http://www.w3.org/2000/svg" xmlns:xlink="http://www.w3.org/1999/xlink" width="18" height="14" viewBox="0 0 18 14"><defs><path id="he06a" d="M1010.83 225.75a2.25 2.25 0 1 1-4.5 0 2.25 2.25 0 0 1 4.5 0zm5.25-3v6.75c0 .83-.68 1.5-1.5 1.5h-12a1.5 1.5 0 0 1-1.5-1.5v-6.75c0-.82.67-1.5 1.5-1.5h1.8c.24 0 .5-.2.59-.43l.46-1.4a.67.67 0 0 1 .6-.42h5.1c.24 0 .5.2.59.43l.46 1.4c.08.23.35.42.6.42h1.8c.82 0 1.5.68 1.5 1.5zm-3.75 3a3.75 3.75 0 1 0-7.5 0 3.75 3.75 0 0 0 7.5 0zm2.25-2.48a.53.53 0 1 0-1.06 0 .53.53 0 0 0 1.06 0z"/></defs><g><g transform="translate(-1000 -218)"><use fill="currentColor" xlink:href="#he06a"/></g></g></svg>
