<svg xmlns="http://www.w3.org/2000/svg" xmlns:xlink="http://www.w3.org/1999/xlink" width="21" height="22" viewBox="0 0 21 22"><defs><path id="xmdfa" d="M46.33 13899.07c0 .71-.56 1.29-1.26 1.29s-1.27-.58-1.27-1.29c0-.7.57-1.28 1.27-1.28.7 0 1.26.57 1.26 1.28zm-.63 0a.64.64 0 0 0-.63-.64.64.64 0 0 0-.64.64.64.64 0 0 0 1.27 0zm5.07 0c0 .71-.57 1.29-1.27 1.29-.7 0-1.27-.58-1.27-1.29 0-.7.57-1.28 1.27-1.28.7 0 1.27.57 1.27 1.28zm-.64 0a.64.64 0 0 0-.63-.64.64.64 0 0 0-.63.64c0 .36.28.64.63.64s.63-.28.63-.64zm5.07 0c0 .71-.57 1.29-1.27 1.29-.7 0-1.26-.58-1.26-1.29 0-.7.56-1.28 1.26-1.28s1.27.57 1.27 1.28zm-.63 0a.64.64 0 0 0-.64-.64.64.64 0 0 0-.63.64c0 .36.28.64.63.64s.64-.28.64-.64zm4.43-5.14v10.6c0 1.05-.97 2.47-2 2.47h-9l-3 3c-.06.07-.16 0-.25 0a.3.3 0 0 1-.11-.02c-.13-.05-.64.15-.64.02v-3h-2c-1.03 0-2-1.42-2-2.46v-10.61c0-1.05.87-1.93 1.9-1.93h15.2c1.03 0 1.9.88 1.9 1.93zm-1 .07c0-.7-.31-1-1-1H42c-.69 0-1 .3-1 1v11c0 .7.21.82.9.82l2.1.18c.18 0 1.07-.03 1.07.14v2.7l2.61-2.91 1.58-1.87a.31.31 0 0 1 .45-.03c.13.12.14.32.03.45L49 13906h8c.69 0 1-1.3 1-2z"/></defs><g><g transform="translate(-39 -13890)"><use fill="#4b8078" xlink:href="#xmdfa"/></g></g></svg>