<svg xmlns="http://www.w3.org/2000/svg" xmlns:xlink="http://www.w3.org/1999/xlink" width="42" height="44" viewBox="0 0 42 44"><defs><path id="nizfa" d="M183.13 106.63h1.24v3.12h-1.24zm-27.5 0h1.24v3.12h-1.24zm0 10h1.24v3.12h-1.24zm0 5h1.24v3.12h-1.24zm27.5-5h1.24v3.12h-1.24zm0 5h1.24v3.12h-1.24zm6.87-3.44V131h-40v-12.81c0-1.44.46-2.77 1.25-3.85V103.5a5 5 0 0 1 4.4-4.96v-.67H155v-1.24h.65V96h-1.28v-1.25h1.28v-.62h1.24v.62h1.23V96h-1.23v.63h.6v1.24h-.6v.68a5 5 0 0 1 4.36 4.95v10.1c.22.24.43.49.63.75v-.85c0-2.3.96-4.38 2.5-5.86V101c0-2.9 2.2-5.29 5.02-5.59v-.66h-.65V93.5h.65v-.63h-1.28v-1.24h1.28V91h1.25v.63h1.23v1.24h-1.23v.63h.6v1.25h-.6v.67c2.8.32 4.97 2.7 4.97 5.58v6.64a8.1 8.1 0 0 1 2.5 5.86v.85c.2-.26.4-.51.63-.75v-10.1a5 5 0 0 1 4.4-4.96v-.67h-.65v-1.24h.65V96h-1.27v-1.25h1.27v-.62h1.25v.62h1.23V96h-1.23v.63h.6v1.24h-.6v.68a5 5 0 0 1 4.35 4.95v10.84a6.52 6.52 0 0 1 1.25 3.85zm-37.5-14.69h7.5a3.76 3.76 0 0 0-7.5 0zm0 9.55a6.53 6.53 0 0 1 7.5-.44v-7.86h-7.5zm9.38 5.14a5.32 5.32 0 0 0-10.64 0v9.07h1.88v1.24h-1.88v1.26h10.64v-1.26h-1.26v-1.24h1.26zm3.79-17.81h8.66a4.38 4.38 0 0 0-8.66 0zm-.05 1.24v5.04a8 8 0 0 1 1.26-.66v-3.12h1.24v2.72c.4-.1.83-.17 1.26-.2v-2.52h1.24v2.52c.43.03.85.1 1.26.2v-2.72h1.24V106a8 8 0 0 1 1.26.66v-5.04zm3.76 18.75h-2.5v9.39h2.5zm3.75 0h-2.5v9.39h2.5zm0-1.24a3.13 3.13 0 0 0-6.26 0h6.26zm3.75-5.63a6.89 6.89 0 0 0-13.76 0v13.76H165v1.24h-1.88v1.26h2.5v-10.63c0-2.21 1.65-4.04 3.78-4.33v-.68h-.65v-1.24h.65v-.63h-1.28V111h1.28v-.62h1.25v.62h1.23v1.25h-1.23v.63h.6v1.24h-.6v.68a4.38 4.38 0 0 1 3.72 4.33v10.63h2.5v-1.26H175v-1.24h1.88zm3.12-10h7.5a3.76 3.76 0 0 0-7.5 0zm0 1.25v7.86a6.51 6.51 0 0 1 7.5.44v-8.3zm8.76 23.75h-1.88v-1.24h1.88v-9.07a5.32 5.32 0 0 0-10.64 0v9.07h1.26v1.24h-1.26v1.26h10.64zm-34.39-1.25h5v1.25h-5zm26.26 0h5v1.25h-5z"/></defs><g><g transform="translate(-149 -89)"><use fill="#d9dbce" xlink:href="#nizfa"/></g></g></svg>