<svg xmlns="http://www.w3.org/2000/svg" xmlns:xlink="http://www.w3.org/1999/xlink" width="24" height="24" viewBox="0 0 24 24"><defs><path id="57aga" d="M1244.01 40a10.01 10.01 0 1 1-20.02 0 10.01 10.01 0 0 1 20.02 0zm-8.42 0c0-.19 2.71-2.7 2.71-2.7l-1.6-1.6s-2.54 2.7-2.7 2.7a42 42 0 0 1-2.71-2.7l-1.6 1.6s2.71 2.48 2.71 2.7c0 .22-2.7 2.71-2.7 2.71l1.59 1.6s2.52-2.71 2.7-2.71c.2 0 2.72 2.7 2.72 2.7l1.6-1.59s-2.72-2.53-2.72-2.7z"/></defs><g><g transform="translate(-1222 -28)"><use fill="#fff" xlink:href="#57aga"/></g></g></svg>