<svg xmlns="http://www.w3.org/2000/svg" xmlns:xlink="http://www.w3.org/1999/xlink" width="19" height="19" viewBox="0 0 19 19"><defs><path id="q4oxa" d="M510.48 8451.51a3.04 3.04 0 0 0 5.65 1.53.44.44 0 1 1 .76.44 3.91 3.91 0 1 1 .53-1.97.44.44 0 0 1-.88 0 3.04 3.04 0 0 0-6.06 0zm10.48.91c-.1.75-.54 1.4-1.21 1.74-.63.33-1.35.33-1.96 0a.44.44 0 1 1 .41-.77c.36.19.78.19 1.15 0 .4-.21.68-.61.74-1.07a6.65 6.65 0 0 0-6.04-7.41 6.64 6.64 0 1 0 4.15 11.29.44.44 0 0 1 .62.62 7.5 7.5 0 1 1 2.14-4.4z"/></defs><g><g transform="translate(-504 -8442)"><use fill="#4b8078" xlink:href="#q4oxa"/></g></g></svg>