<svg xmlns="http://www.w3.org/2000/svg" xmlns:xlink="http://www.w3.org/1999/xlink" width="18" height="19" viewBox="0 0 18 19"><defs><path id="s5qna" d="M1016.08 164.4a7.5 7.5 0 1 1-15 .2 7.5 7.5 0 0 1 15-.2zm-8.2-3.7c-.01.6.33.96 1.05.96.86 0 1.37-.58 1.37-1.21 0-.5-.22-.95-.99-.95-1 0-1.42.7-1.42 1.2zm2.58 6.78l-.3-.4c-.5.4-1.01.59-1.17.59-.12 0-.17-.16-.05-.62l.68-2.59c.26-.95.18-1.56-.35-1.56-.62 0-2.08.62-3.34 1.68l.26.42c.4-.27 1.07-.54 1.23-.54.12 0 .1.16 0 .55l-.6 2.47c-.36 1.4.02 1.7.54 1.7s1.86-.47 3.1-1.7z"/></defs><g><g transform="translate(-1000 -155)"><use fill="currentColor" xlink:href="#s5qna"/></g></g></svg>
