<svg xmlns="http://www.w3.org/2000/svg" xmlns:xlink="http://www.w3.org/1999/xlink" width="17" height="17" viewBox="0 0 17 17"><defs><path id="vd0ea" d="M1016 104.5a7.5 7.5 0 1 1-15 0 7.5 7.5 0 0 1 15 0zm-9.97 2.2c0-.28.26-.7-.03-.7-.82-.02-1 .42-1 .7 0 .3.71.3 1 .3.29 0 .03 0 .03-.3zm0-2.2a.52.52 0 1 0-1.03 0 .52.52 0 0 0 1.03 0zm-.03-2.5c-.29 0-.87-.25-1 0-.18.33.33 1.1 1 1 .28-.04 0-.71 0-1zm0 0c.29 0 0-.29 0 0zm6 5c0-.29.29-.85 0-.85h-4.85c-.3 0-.15.56-.15.85zm0 0c0 .29.29 0 0 0zm0-2c0 .28.29 0 0 0zm0 0c0-.29.29-1.04 0-1.04h-4.85c-.08 0-.13-.01-.15-.03v.07c0 .29-.14 1 .15 1zm-5-1.07c-.02-.12-.07-.05 0 0zm5-1.93h-5c0 .29-.14.81.15.81l4.85.19s-.06-.9 0-1zm-5 0c0-.29-.29 0 0 0zm5 0c.29 0 .07-.13 0 0z"/></defs><g><g transform="translate(-1000 -96)"><use fill="currentColor" xlink:href="#vd0ea"/></g></g></svg>
