<svg xmlns="http://www.w3.org/2000/svg" xmlns:xlink="http://www.w3.org/1999/xlink" width="49" height="65" viewBox="0 0 49 65"><defs><path id="p3bba" d="M44.38 16657.78c-3.43 9.12-6.9 19.84-15.7 25.07-.55.33-1.22.11-1.56-.42-7.03-11-13.82-23.31-16.17-36.35v-.05c-3.32-7.58 2.66-17.9 9.65-21.03 8.76-3.91 20.43-2.16 26.5 5.89 6.48 8.59.53 18.26-2.72 26.89zm-8.66-31.72c2.18 1.89 4.66 3.39 6.99 5.1a22.71 22.71 0 0 1 3.97 3.42c-2-4.2-6.26-7.16-10.96-8.52zm-5.36-.87c3.37 2.57 6.96 4.83 10.38 7.33 2.37 1.72 5.1 3.5 7.04 5.8-.03-.28-.1-.56-.15-.84a.4.4 0 0 1-.38-.14 35.46 35.46 0 0 0-6.99-6.76c-2.03-1.5-4.04-3-5.76-4.84-1.37-.32-2.77-.5-4.14-.55zm-8.4 1.87a38.1 38.1 0 0 1 4.78 3.13 5.9 5.9 0 0 1 4.08-.15l.05-.03c-2.14-.92-4.13-2.63-5.83-4.2-1.05.3-2.08.73-3.08 1.25zm14.5 11.54c.86-3.56-1.02-6.4-4.55-6.69a.86.86 0 0 1-.58.08c-2.97-.6-5.76.3-6.39 3.6-.46 2.45.31 5.52 2.65 6.74 3.28 1.72 7.94.05 8.86-3.73zm-16.77-10.18c.76.62 1.54 1.23 2.36 1.78.82.57 1.73 1.03 2.54 1.6a6 6 0 0 1 1.2-1.1c-1.58-1.04-3.08-2.21-4.74-3.15-.46.27-.92.56-1.36.87zm-2.42 2c.96.99 2.03 1.86 3.17 2.64.83.57 1.79 1.05 2.66 1.62.22-.77.54-1.5.95-2.14-1.06-.45-2.02-1.27-2.9-1.97a91.2 91.2 0 0 1-2.08-1.7c-.63.48-1.23 1-1.8 1.56zm-2.13 2.48c1.3 1.13 2.6 2.29 4.05 3.25 1.11.74 2.45 1.28 3.56 2.04a9.57 9.57 0 0 1 .1-2.35c-1.2-.62-2.35-1.6-3.34-2.41a22.21 22.21 0 0 1-2.67-2.56 18.8 18.8 0 0 0-1.7 2.03zm21.05 38.35a.5.5 0 0 1-.49-.18c-6.06-7.15-13.87-11.99-20.87-18.1.84 2.29 1.74 4.54 2.7 6.77.05-.17.23-.3.4-.18 5.68 4.16 9.33 11.27 15.43 14.83.58.34.18 1.16-.43 1.04-2.72-.52-5.12-4.14-6.83-6.07-2.77-3.13-5.45-6.31-8.4-9.26 3.04 6.97 6.68 13.68 10.76 20.14.78-.53 1.5-1.12 2.2-1.74-.58-.4-1.02-1.07-1.45-1.59l-2.22-2.68c-1.45-1.8-2.97-3.54-4.4-5.36-.19-.24.12-.58.34-.34 1.67 1.83 3.26 3.74 4.93 5.57 1 1.1 2.72 2.38 3.47 3.75 1.93-1.91 3.51-4.17 4.86-6.6zm1.88-3.73c-.24-.13-.43-.3-.84-.7a.54.54 0 0 1-.14-.29c-8.4-6.2-16.6-12.94-24.13-20.2 0 .18-.08.35-.2.49.5 1.65 1.06 3.29 1.63 4.91.07 0 .15.03.21.08 4.54 3.65 9.43 6.82 14.06 10.34 2.47 1.89 7.25 4.84 8.03 8.19.5-.93.94-1.87 1.38-2.82zm3.27-8.16l-.5-.25a.47.47 0 0 1-.26-.42c-.44-.3-.87-.62-1.3-.93-.66-.49-1.3-1.01-1.94-1.52-3.38-2.65-6.7-5.28-10.27-7.65-4.83-3.22-10.13-6.28-14.55-10.14-.21.87-.34 1.75-.38 2.65 5.89 3.56 11.57 7.58 17.2 11.51 1.57 1.1 11.89 6.9 10.8 9.67-.18.47-1.03.65-1.13 0-.22-1.55-4.3-3.96-5.36-4.78a281.8 281.8 0 0 0-8.88-6.5c-4.13-2.93-8.76-5.55-12.62-8.86.04.98.2 1.97.47 2.96a552.27 552.27 0 0 0 26.15 20.78 165.5 165.5 0 0 0 2.54-6.44l.03-.08zm3.52-8.06a.43.43 0 0 1-.44.09c-1.65-.55-3.16-2.26-4.49-3.33-1.74-1.4-3.49-2.83-5.43-3.94a8.5 8.5 0 0 1-7.02.56 7.1 7.1 0 0 1-4.56-5.42c-1.71-.18-3.45-1.6-4.76-2.62a34.01 34.01 0 0 1-3.49-3.02c-.17.26-.35.51-.5.78l.03.02c4.23 5.4 9.84 8.59 15.77 11.74 4.34 2.3 9.72 4.68 12.75 8.73.27.35-.07.77-.44.8-.01.01-.01.02-.03.02l-.02-.01a.45.45 0 0 1-.25-.07c-5.36-3.37-10.52-6.98-16-10.24-4.62-2.75-9.12-5.8-12.16-10.35-.43.83-.8 1.69-1.06 2.58 5.45 3.48 10.75 7.26 16.22 10.73 3.25 2.05 6.16 4.45 9.25 6.72 1.17.86 2.68 1.68 3.73 2.75.88-2.08 1.92-4.28 2.9-6.52zm1.28-3.17c-1.46-.8-2.66-2.15-3.93-3.25-1.5-1.3-3-2.57-4.54-3.82a8.45 8.45 0 0 1-2.5 2.65c1.86 1.05 3.61 2.34 5.33 3.6 1.42 1.04 3.18 1.98 4.4 3.25.1.1.13.22.13.35.39-.92.77-1.85 1.11-2.78zm.37-1.02c.76-2.24 1.3-4.5 1.36-6.69-3.7-2.97-7.16-6.2-10.98-9.08-2.62-1.98-5.22-4-7.72-6.15-1.1.04-2.17.16-3.2.39.8.63 1.6 1.27 2.46 1.83 1.32.87 2.75 1.44 4.12 2.21.06.04.1.08.14.13a6.99 6.99 0 0 1 6.16 6.59c1.17.95 2.33 1.91 3.52 2.85 1.62 1.27 3.44 2.48 4.84 4 .4.42-.13 1.18-.63.83-1.72-1.22-3.24-2.81-4.83-4.2l-2.9-2.56a7.77 7.77 0 0 1-.8 3.12c1.53 1.11 3.03 2.27 4.53 3.44 1.25.98 2.94 1.96 3.93 3.29z"/></defs><g><g transform="translate(-6 -16620)"><use fill="#4b8078" xlink:href="#p3bba"/></g></g></svg>