<svg xmlns="http://www.w3.org/2000/svg" xmlns:xlink="http://www.w3.org/1999/xlink" width="27" height="27" viewBox="0 0 27 27"><defs><path id="1izxa" d="M19.58 28.92a2.92 2.92 0 1 1 5.84 0 2.92 2.92 0 0 1-5.84 0zm.84 0a2.09 2.09 0 1 0 4.17 0 2.09 2.09 0 0 0-4.17 0zm-4.4 5.65c-2.38-3.18-2.04-8.44.76-11.23A7.94 7.94 0 0 1 22.43 21c2.13 0 4.14.83 5.65 2.34 2.79 2.8 3.14 8.05.74 11.24l-6.4 9.24zm.68-.49l5.73 8.27 5.71-8.25c2.18-2.9 1.87-7.65-.65-10.17a7.11 7.11 0 0 0-5.06-2.1c-1.92 0-3.71.75-5.06 2.1-2.52 2.52-2.84 7.26-.67 10.15zM35 42.46C35 44.22 30.7 46 22.5 46S10 44.22 10 42.46c0-1.57 3.06-3.02 7.45-3.54.23-.03.44.14.46.36a.42.42 0 0 1-.36.47c-4.38.51-6.72 1.9-6.72 2.7 0 1.14 4.44 2.72 11.67 2.72 7.23 0 11.67-1.58 11.67-2.71 0-.8-2.34-2.2-6.72-2.71a.42.42 0 0 1 .1-.83c4.39.52 7.45 1.97 7.45 3.54z"/></defs><g><g transform="translate(-9 -20)"><use fill="#4b8078" xlink:href="#1izxa"/></g></g></svg>