<svg xmlns="http://www.w3.org/2000/svg" xmlns:xlink="http://www.w3.org/1999/xlink" width="19" height="22" viewBox="0 0 19 22"><defs><path id="cn3ia" d="M44.87 13799.56c-1.41-1.62-1.18-4.39-1.15-4.65.09-2 1.02-2.96 1.8-3.4a4.01 4.01 0 0 1 1.96-.51h.06a4 4 0 0 1 1.96.53c.76.44 1.68 1.39 1.77 3.38.03.26.26 3.03-1.14 4.65a3.34 3.34 0 0 1-2.58 1.14h-.11a3.32 3.32 0 0 1-2.57-1.14zm.73-.67c.46.53 1.07.8 1.88.8h.03c.81 0 1.42-.27 1.88-.8 1.16-1.33.9-3.86.9-3.9v-.02c-.11-2.53-1.79-2.94-2.77-2.96h-.05c-.8 0-2.65.29-2.77 2.96v.03c-.01.02-.26 2.57.9 3.9zm9.22 8.1a.5.5 0 0 1-.19.23c-.1.07-2.73 1.78-7.12 1.78-4.4 0-7.02-1.7-7.13-1.78a.47.47 0 0 1-.2-.24c-.19-.5-.18-1.5-.18-1.68v-.02-.09c.03-.73.07-2.46 1.66-3.02h.04c1.65-.43 3.01-1.4 3.03-1.42.22-.16.53-.1.68.13.16.22.1.54-.12.7-.06.04-1.51 1.08-3.33 1.55-.85.31-.95 1.24-.97 2.09v.1c-.01.33.01.85.07 1.15.6.34 2.93 1.53 6.44 1.53 3.53 0 5.85-1.19 6.44-1.53.06-.3.08-.82.08-1.15v-.1c-.03-.85-.13-1.77-.98-2.08-1.82-.48-3.27-1.51-3.33-1.56a.51.51 0 0 1-.12-.7.49.49 0 0 1 .68-.12c.02 0 1.39.98 3.03 1.4l.04.02c1.59.55 1.63 2.28 1.66 3.01v.1c0 .2 0 1.2-.18 1.7z"/></defs><g><g transform="translate(-38 -13789)"><use fill="#4b8078" xlink:href="#cn3ia"/></g></g></svg>