<svg xmlns="http://www.w3.org/2000/svg" xmlns:xlink="http://www.w3.org/1999/xlink" width="19" height="18" viewBox="0 0 19 18"><defs><path id="y45xa" d="M517.6 8355.04c.33.31.5.69.5 1.08 0 .4-.17.77-.49 1.1l-.4.4c-.2.2-.4.38-.56.58l-.02.01a2.39 2.39 0 0 1-2.02.78 7.75 7.75 0 0 1-2.8-.82 14.93 14.93 0 0 1-4.96-3.88 13.63 13.63 0 0 1-2.42-4.05 5.54 5.54 0 0 1-.41-2.34c.05-.58.28-1.07.69-1.48l1.08-1.08c.32-.31.7-.47 1.08-.47.39 0 .75.16 1.06.46a14.78 14.78 0 0 1 .9.89l.86.86c.66.67.66 1.53 0 2.2-.1.08-.18.18-.27.26-.23.24-.47.49-.73.73.19.42.46.85.85 1.35.82 1 1.67 1.78 2.61 2.37l.31.17.25.13 1-1c.32-.32.7-.49 1.08-.49.4 0 .77.17 1.07.5zm-.6.6l-1.75-1.75c-.1-.11-.27-.24-.46-.24-.2 0-.37.13-.48.24l-1.09 1.08c-.05.06-.21.22-.48.22-.1 0-.2-.02-.31-.08l-.04-.02-.31-.17-.4-.21a11.64 11.64 0 0 1-2.8-2.56h-.01a6.94 6.94 0 0 1-1.02-1.67l-.01-.03c-.06-.18-.11-.45.16-.72l.02-.01c.27-.25.53-.5.8-.78l.26-.27c.34-.33.34-.64 0-.98l-.86-.87-.3-.3-.57-.57h-.01a.68.68 0 0 0-.46-.23.72.72 0 0 0-.49.22l-1.08 1.08c-.26.27-.4.57-.43.95-.05.57.06 1.19.35 1.98.48 1.29 1.2 2.5 2.28 3.8 1.31 1.55 2.89 2.79 4.68 3.65a6.89 6.89 0 0 0 2.62.75c.5 0 .87-.16 1.2-.5.19-.24.4-.44.6-.64.14-.13.27-.25.39-.39.32-.33.32-.66 0-.99zm-5.23-8.57a.43.43 0 0 1 .5-.35 4.9 4.9 0 0 1 4.01 4.02.43.43 0 0 1-.35.5h-.07a.43.43 0 0 1-.43-.36 4.04 4.04 0 0 0-3.32-3.31.42.42 0 0 1-.34-.5zm6.88 4.03h-.08a.42.42 0 0 1-.42-.35 7.2 7.2 0 0 0-5.91-5.9.43.43 0 1 1 .14-.84 8.05 8.05 0 0 1 4.36 2.25 8.03 8.03 0 0 1 2.26 4.36.42.42 0 0 1-.35.48z"/></defs><g><g transform="translate(-502 -8342)"><use fill="#4b8078" xlink:href="#y45xa"/></g></g></svg>