<svg xmlns="http://www.w3.org/2000/svg" xmlns:xlink="http://www.w3.org/1999/xlink" width="29" height="28" viewBox="0 0 29 28"><defs><path id="8gywa" d="M511.06 7731.93h-1.15v6.66a2.41 2.41 0 0 1-4.82 0v-6.66h-1.15a2.41 2.41 0 0 1 0-4.83h1.15v-1.05a2.41 2.41 0 0 1 4.82 0v1.05h1.15a2.41 2.41 0 0 1 0 4.83zm.93-2.41c0-.51-.42-.93-.93-.93h-1.9a.74.74 0 0 1-.74-.74v-1.8c0-.5-.41-.92-.92-.92-.5 0-.92.41-.92.92v1.8c0 .41-.34.74-.75.74h-1.9a.92.92 0 0 0 0 1.85h1.9c.41 0 .75.34.75.75v7.4a.92.92 0 0 0 1.84 0v-7.4c0-.41.34-.75.75-.75h1.9c.5 0 .92-.41.92-.92zm-5.17-8.18v-4.6a.74.74 0 1 1 1.49 0v4.6a.74.74 0 1 1-1.5 0zm14.18 8.24c0 .41-.33.75-.74.75h-4.6a.74.74 0 0 1 0-1.5h4.6c.4 0 .74.34.74.75zm-8.21-5.27a.74.74 0 0 1 0-1.05l3.25-3.26a.74.74 0 1 1 1.05 1.06l-3.25 3.25a.74.74 0 0 1-1.05 0zm-14.8-3.34a.75.75 0 0 1 1.06-1.05l3.25 3.25a.75.75 0 0 1-.53 1.27.74.74 0 0 1-.52-.22zm1.35 9.23h-4.6a.74.74 0 0 1 0-1.49h4.6a.74.74 0 0 1 0 1.49zm2.87 4.53c.29.29.29.76 0 1.05l-3.25 3.25a.74.74 0 0 1-1.05 0 .74.74 0 0 1 0-1.05l3.25-3.25c.29-.3.76-.3 1.05 0zm14.8 3.34a.75.75 0 0 1-.53 1.27.74.74 0 0 1-.53-.22l-3.25-3.25a.74.74 0 0 1 1.05-1.05zm-14.35-18.46a.74.74 0 0 1 1.38-.57l1.08 2.62a.74.74 0 0 1-1.37.57zm12.12 6.15l2.62-1.09a.74.74 0 0 1 .57 1.38l-2.62 1.09a.74.74 0 0 1-.57-1.38zm-4.79-4.05l1.09-2.63a.74.74 0 1 1 1.37.58l-1.08 2.62a.74.74 0 1 1-1.38-.57zm-13.31 3.25c.16-.38.6-.56.97-.4l2.62 1.08a.75.75 0 0 1-.57 1.38l-2.62-1.08a.75.75 0 0 1-.4-.98zm3.54 8.32l-2.62 1.08a.74.74 0 0 1-.97-.4.75.75 0 0 1 .4-.97l2.62-1.09a.74.74 0 0 1 .57 1.38zm18.1.8a.74.74 0 0 1-.97.4l-2.62-1.09a.74.74 0 0 1 .57-1.37l2.62 1.08c.38.16.56.6.4.97z"/></defs><g><g opacity=".1" transform="translate(-493 -7715)"><use xlink:href="#8gywa"/></g></g></svg>