<?xml version="1.0" encoding="utf-8"?><svg xmlns="http://www.w3.org/2000/svg" xmlns:xlink="http://www.w3.org/1999/xlink"><symbol viewBox="0 0 10 18" id="arrow-left" xmlns="http://www.w3.org/2000/svg"><defs><path id="aa" d="M36.49 4085l1.51 1.63-4.97 5.37 4.97 5.37-1.51 1.63-6.49-7z"/></defs><use xlink:href="#aa" transform="translate(-29 -4083)"/></symbol><symbol viewBox="0 0 16 16" id="arrow-left-o" xmlns="http://www.w3.org/2000/svg"><defs><path id="ba" d="M88.8 10228.98a6 6 0 0 1 10.4 0c.54.93.8 1.93.8 3.02s-.26 2.1-.8 3.02a5.98 5.98 0 0 1-8.22 2.18 5.98 5.98 0 0 1-2.99-5.2c0-1.09.27-2.1.8-3.02zm2.05 3.37l3.55 3.55a.485.485 0 0 0 .7 0l.8-.8c.1-.1.15-.21.15-.35a.49.49 0 0 0-.15-.35l-2.4-2.4 2.4-2.4c.1-.1.15-.22.15-.35a.48.48 0 0 0-.15-.36l-.8-.8a.48.48 0 0 0-.35-.14.48.48 0 0 0-.35.15l-3.55 3.55a.485.485 0 0 0 0 .7z"/></defs><use xlink:href="#ba" transform="translate(-86 -10224)"/></symbol><symbol viewBox="0 0 10 18" id="arrow-right" xmlns="http://www.w3.org/2000/svg"><defs><path id="ca" d="M303.51 4085l-1.51 1.63 4.97 5.37-4.97 5.37 1.51 1.63 6.49-7z"/></defs><use xlink:href="#ca" transform="translate(-301 -4083)"/></symbol><symbol viewBox="0 0 16 16" id="arrow-right-o" xmlns="http://www.w3.org/2000/svg"><defs><path id="da" d="M810 10232a5.98 5.98 0 0 1-6 6 5.98 5.98 0 0 1-5.2-9.02 6 6 0 0 1 10.4 0c.54.93.8 1.93.8 3.02zm-2.7 0a.48.48 0 0 0-.15-.35l-3.55-3.55a.48.48 0 0 0-.35-.15.48.48 0 0 0-.35.15l-.8.8a.485.485 0 0 0 0 .7l2.4 2.4-2.4 2.4a.48.48 0 0 0 0 .7l.8.8a.485.485 0 0 0 .7 0l3.55-3.55c.1-.1.15-.21.15-.35z"/></defs><use xlink:href="#da" transform="translate(-796 -10224)"/></symbol><symbol viewBox="0 0 24 24" id="calendar" xmlns="http://www.w3.org/2000/svg"><defs><path id="ea" d="M60 1636.4v18.6H40v-18.6h5.2c.17-.8.86-1.4 1.7-1.4.95 0 1.72.79 1.72 1.75 0 .97-.77 1.76-1.72 1.76a.35.35 0 0 1-.35-.35c0-.2.16-.35.35-.35.57 0 1.03-.48 1.03-1.06 0-.58-.46-1.05-1.03-1.05-.45 0-.83.3-.97.7h.62c.2 0 .35.16.35.35 0 .2-.16.35-.35.35H40.7v3.16h18.62v-3.16H54.8c-.16.8-.85 1.4-1.69 1.4a.35.35 0 0 1-.34-.34c0-.2.15-.35.34-.35.57 0 1.04-.48 1.04-1.06 0-.58-.47-1.05-1.04-1.05a.35.35 0 0 1-.34-.35c0-.2.15-.35.34-.35.84 0 1.53.6 1.7 1.4zm-.69 4.56H40.69v13.34h18.62zm-10.69-5.61c0-.2.15-.35.35-.35.95 0 1.72.79 1.72 1.75 0 .97-.77 1.76-1.72 1.76a.35.35 0 0 1-.35-.35c0-.2.15-.35.35-.35.57 0 1.03-.48 1.03-1.06 0-.58-.46-1.05-1.03-1.05a.35.35 0 0 1-.35-.35zm2.07 0c0-.2.15-.35.34-.35.96 0 1.73.79 1.73 1.75 0 .97-.77 1.76-1.73 1.76a.35.35 0 0 1-.34-.35c0-.2.15-.35.34-.35.57 0 1.04-.48 1.04-1.06 0-.58-.47-1.05-1.04-1.05a.35.35 0 0 1-.34-.35zm-3.1 7.72c.19 0 .34.16.34.35 0 .2-.15.35-.34.35a.35.35 0 0 1-.35-.35c0-.2.16-.35.35-.35zm2.41 0c.19 0 .34.16.34.35 0 .2-.15.35-.34.35a.35.35 0 0 1-.34-.35c0-.2.15-.35.34-.35zm2.41 0c.2 0 .35.16.35.35a.35.35 0 1 1-.69 0c0-.2.15-.35.34-.35zm2.42 0c.19 0 .34.16.34.35 0 .2-.15.35-.34.35a.35.35 0 0 1-.35-.35c0-.2.16-.35.35-.35zm2.41 0c.2 0 .35.16.35.35a.35.35 0 1 1-.69 0c0-.2.15-.35.34-.35zm-14.48 2.8c.19 0 .34.17.34.36 0 .2-.15.35-.34.35a.35.35 0 0 1-.35-.35c0-.2.16-.35.35-.35zm2.41 0c.2 0 .35.17.35.36a.35.35 0 0 1-.69 0c0-.2.15-.35.34-.35zm2.42 0c.19 0 .34.17.34.36 0 .2-.15.35-.34.35a.35.35 0 0 1-.35-.35c0-.2.16-.35.35-.35zm2.41 0c.19 0 .34.17.34.36 0 .2-.15.35-.34.35a.35.35 0 0 1-.34-.35c0-.2.15-.35.34-.35zm2.41 0c.2 0 .35.17.35.36a.35.35 0 0 1-.69 0c0-.2.15-.35.34-.35zm2.42 0c.19 0 .34.17.34.36 0 .2-.15.35-.34.35a.35.35 0 0 1-.35-.35c0-.2.16-.35.35-.35zm2.41 0c.2 0 .35.17.35.36a.35.35 0 0 1-.69 0c0-.2.15-.35.34-.35zm-14.48 2.46c.19 0 .34.16.34.35 0 .2-.15.36-.34.36a.35.35 0 0 1-.35-.36c0-.19.16-.35.35-.35zm2.41 0c.2 0 .35.16.35.35 0 .2-.16.36-.35.36a.35.35 0 0 1-.34-.36c0-.19.15-.35.34-.35zm2.42 0c.19 0 .34.16.34.35 0 .2-.15.36-.34.36a.35.35 0 0 1-.35-.36c0-.19.16-.35.35-.35zm2.41 0c.19 0 .34.16.34.35 0 .2-.15.36-.34.36a.35.35 0 0 1-.34-.36c0-.19.15-.35.34-.35zm2.41 0c.2 0 .35.16.35.35 0 .2-.16.36-.35.36a.35.35 0 0 1-.34-.36c0-.19.15-.35.34-.35zm2.42 0c.19 0 .34.16.34.35 0 .2-.15.36-.34.36a.35.35 0 0 1-.35-.36c0-.19.16-.35.35-.35zm2.41 0c.2 0 .35.16.35.35 0 .2-.16.36-.35.36a.35.35 0 0 1-.34-.36c0-.19.15-.35.34-.35zm-14.48 2.81c.19 0 .34.16.34.35 0 .2-.15.35-.34.35a.35.35 0 0 1-.35-.35c0-.2.16-.35.35-.35zm2.41 0c.2 0 .35.16.35.35a.35.35 0 0 1-.69 0c0-.2.15-.35.34-.35zm2.42 0c.19 0 .34.16.34.35 0 .2-.15.35-.34.35a.35.35 0 0 1-.35-.35c0-.2.16-.35.35-.35zm2.41 0c.19 0 .34.16.34.35 0 .2-.15.35-.34.35a.35.35 0 0 1-.34-.35c0-.2.15-.35.34-.35zm2.41 0c.2 0 .35.16.35.35a.35.35 0 0 1-.69 0c0-.2.15-.35.34-.35z"/></defs><use xlink:href="#ea" transform="translate(-38 -1633)"/></symbol><symbol viewBox="0 0 21 22" id="chat" xmlns="http://www.w3.org/2000/svg"><defs><path id="fa" d="M46.33 13899.07c0 .71-.56 1.29-1.26 1.29s-1.27-.58-1.27-1.29c0-.7.57-1.28 1.27-1.28.7 0 1.26.57 1.26 1.28zm-.63 0a.64.64 0 0 0-.63-.64.64.64 0 0 0-.64.64.64.64 0 0 0 1.27 0zm5.07 0c0 .71-.57 1.29-1.27 1.29-.7 0-1.27-.58-1.27-1.29 0-.7.57-1.28 1.27-1.28.7 0 1.27.57 1.27 1.28zm-.64 0a.64.64 0 0 0-.63-.64.64.64 0 0 0-.63.64.63.63 0 1 0 1.26 0zm5.07 0c0 .71-.57 1.29-1.27 1.29-.7 0-1.26-.58-1.26-1.29 0-.7.56-1.28 1.26-1.28s1.27.57 1.27 1.28zm-.63 0a.64.64 0 0 0-.64-.64.64.64 0 0 0-.63.64c0 .36.28.64.63.64s.64-.28.64-.64zm4.43-5.14v10.6c0 1.05-.97 2.47-2 2.47h-9l-3 3c-.06.07-.16 0-.25 0a.3.3 0 0 1-.11-.02c-.13-.05-.64.15-.64.02v-3h-2c-1.03 0-2-1.42-2-2.46v-10.61c0-1.05.87-1.93 1.9-1.93h15.2c1.03 0 1.9.88 1.9 1.93zm-1 .07c0-.7-.31-1-1-1H42c-.69 0-1 .3-1 1v11c0 .7.21.82.9.82l2.1.18c.18 0 1.07-.03 1.07.14v2.7l2.61-2.91 1.58-1.87a.31.31 0 0 1 .45-.03c.13.12.14.32.03.45L49 13906h8c.69 0 1-1.3 1-2z"/></defs><use xlink:href="#fa" transform="translate(-39 -13890)"/></symbol><symbol viewBox="0 0 42 44" id="church" xmlns="http://www.w3.org/2000/svg"><defs><path id="ga" d="M183.13 106.63h1.24v3.12h-1.24zm-27.5 0h1.24v3.12h-1.24zm0 10h1.24v3.12h-1.24zm0 5h1.24v3.12h-1.24zm27.5-5h1.24v3.12h-1.24zm0 5h1.24v3.12h-1.24zm6.87-3.44V131h-40v-12.81c0-1.44.46-2.77 1.25-3.85V103.5a5 5 0 0 1 4.4-4.96v-.67H155v-1.24h.65V96h-1.28v-1.25h1.28v-.62h1.24v.62h1.23V96h-1.23v.63h.6v1.24h-.6v.68a5 5 0 0 1 4.36 4.95v10.1c.22.24.43.49.63.75v-.85c0-2.3.96-4.38 2.5-5.86V101c0-2.9 2.2-5.29 5.02-5.59v-.66h-.65V93.5h.65v-.63h-1.28v-1.24h1.28V91h1.25v.63h1.23v1.24h-1.23v.63h.6v1.25h-.6v.67c2.8.32 4.97 2.7 4.97 5.58v6.64a8.1 8.1 0 0 1 2.5 5.86v.85c.2-.26.4-.51.63-.75v-10.1a5 5 0 0 1 4.4-4.96v-.67h-.65v-1.24h.65V96h-1.27v-1.25h1.27v-.62h1.25v.62h1.23V96h-1.23v.63h.6v1.24h-.6v.68a5 5 0 0 1 4.35 4.95v10.84a6.52 6.52 0 0 1 1.25 3.85zm-37.5-14.69h7.5a3.76 3.76 0 0 0-7.5 0zm0 9.55a6.53 6.53 0 0 1 7.5-.44v-7.86h-7.5zm9.38 5.14a5.32 5.32 0 0 0-10.64 0v9.07h1.88v1.24h-1.88v1.26h10.64v-1.26h-1.26v-1.24h1.26zm3.79-17.81h8.66a4.38 4.38 0 0 0-8.66 0zm-.05 1.24v5.04a8 8 0 0 1 1.26-.66v-3.12h1.24v2.72c.4-.1.83-.17 1.26-.2v-2.52h1.24v2.52c.43.03.85.1 1.26.2v-2.72h1.24V106a8 8 0 0 1 1.26.66v-5.04zm3.76 18.75h-2.5v9.39h2.5zm3.75 0h-2.5v9.39h2.5zm0-1.24a3.13 3.13 0 0 0-6.26 0h6.26zm3.75-5.63a6.89 6.89 0 0 0-13.76 0v13.76H165v1.24h-1.88v1.26h2.5v-10.63c0-2.21 1.65-4.04 3.78-4.33v-.68h-.65v-1.24h.65v-.63h-1.28V111h1.28v-.62h1.25v.62h1.23v1.25h-1.23v.63h.6v1.24h-.6v.68a4.38 4.38 0 0 1 3.72 4.33v10.63h2.5v-1.26H175v-1.24h1.88zm3.12-10h7.5a3.76 3.76 0 0 0-7.5 0zm0 1.25v7.86a6.51 6.51 0 0 1 7.5.44v-8.3zm8.76 23.75h-1.88v-1.24h1.88v-9.07a5.32 5.32 0 0 0-10.64 0v9.07h1.26v1.24h-1.26v1.26h10.64zm-34.39-1.25h5v1.25h-5zm26.26 0h5v1.25h-5z"/></defs><use xlink:href="#ga" transform="translate(-149 -89)"/></symbol><symbol viewBox="0 0 24 24" id="close" xmlns="http://www.w3.org/2000/svg"><defs><path id="ha" d="M1244.01 40a10.01 10.01 0 1 1-20.02 0 10.01 10.01 0 0 1 20.02 0zm-8.42 0c0-.19 2.71-2.7 2.71-2.7l-1.6-1.6s-2.54 2.7-2.7 2.7a42 42 0 0 1-2.71-2.7l-1.6 1.6s2.71 2.48 2.71 2.7c0 .22-2.7 2.71-2.7 2.71l1.59 1.6s2.52-2.71 2.7-2.71c.2 0 2.72 2.7 2.72 2.7l1.6-1.59s-2.72-2.53-2.72-2.7z"/></defs><use xlink:href="#ha" transform="translate(-1222 -28)"/></symbol><symbol viewBox="0 0 27 27" id="map" xmlns="http://www.w3.org/2000/svg"><defs><path id="ia" d="M19.58 28.92a2.92 2.92 0 1 1 5.84 0 2.92 2.92 0 0 1-5.84 0zm.84 0a2.09 2.09 0 1 0 4.17 0 2.09 2.09 0 0 0-4.17 0zm-4.4 5.65c-2.38-3.18-2.04-8.44.76-11.23A7.94 7.94 0 0 1 22.43 21c2.13 0 4.14.83 5.65 2.34 2.79 2.8 3.14 8.05.74 11.24l-6.4 9.24zm.68-.49l5.73 8.27 5.71-8.25c2.18-2.9 1.87-7.65-.65-10.17a7.11 7.11 0 0 0-5.06-2.1c-1.92 0-3.71.75-5.06 2.1-2.52 2.52-2.84 7.26-.67 10.15zM35 42.46C35 44.22 30.7 46 22.5 46S10 44.22 10 42.46c0-1.57 3.06-3.02 7.45-3.54.23-.03.44.14.46.36a.42.42 0 0 1-.36.47c-4.38.51-6.72 1.9-6.72 2.7 0 1.14 4.44 2.72 11.67 2.72 7.23 0 11.67-1.58 11.67-2.71 0-.8-2.34-2.2-6.72-2.71a.42.42 0 0 1 .1-.83c4.39.52 7.45 1.97 7.45 3.54z"/></defs><use xlink:href="#ia" transform="translate(-9 -20)"/></symbol><symbol viewBox="0 0 49 65" id="map-pin" xmlns="http://www.w3.org/2000/svg"><defs><path id="ja" d="M44.38 16657.78c-3.43 9.12-6.9 19.84-15.7 25.07-.55.33-1.22.11-1.56-.42-7.03-11-13.82-23.31-16.17-36.35v-.05c-3.32-7.58 2.66-17.9 9.65-21.03 8.76-3.91 20.43-2.16 26.5 5.89 6.48 8.59.53 18.26-2.72 26.89zm-8.66-31.72c2.18 1.89 4.66 3.39 6.99 5.1a22.71 22.71 0 0 1 3.97 3.42c-2-4.2-6.26-7.16-10.96-8.52zm-5.36-.87c3.37 2.57 6.96 4.83 10.38 7.33 2.37 1.72 5.1 3.5 7.04 5.8-.03-.28-.1-.56-.15-.84a.4.4 0 0 1-.38-.14 35.46 35.46 0 0 0-6.99-6.76c-2.03-1.5-4.04-3-5.76-4.84-1.37-.32-2.77-.5-4.14-.55zm-8.4 1.87a38.1 38.1 0 0 1 4.78 3.13 5.9 5.9 0 0 1 4.08-.15l.05-.03c-2.14-.92-4.13-2.63-5.83-4.2-1.05.3-2.08.73-3.08 1.25zm14.5 11.54c.86-3.56-1.02-6.4-4.55-6.69a.86.86 0 0 1-.58.08c-2.97-.6-5.76.3-6.39 3.6-.46 2.45.31 5.52 2.65 6.74 3.28 1.72 7.94.05 8.86-3.73zm-16.77-10.18c.76.62 1.54 1.23 2.36 1.78.82.57 1.73 1.03 2.54 1.6a6 6 0 0 1 1.2-1.1c-1.58-1.04-3.08-2.21-4.74-3.15-.46.27-.92.56-1.36.87zm-2.42 2c.96.99 2.03 1.86 3.17 2.64.83.57 1.79 1.05 2.66 1.62.22-.77.54-1.5.95-2.14-1.06-.45-2.02-1.27-2.9-1.97a91.2 91.2 0 0 1-2.08-1.7c-.63.48-1.23 1-1.8 1.56zm-2.13 2.48c1.3 1.13 2.6 2.29 4.05 3.25 1.11.74 2.45 1.28 3.56 2.04a9.57 9.57 0 0 1 .1-2.35c-1.2-.62-2.35-1.6-3.34-2.41a22.21 22.21 0 0 1-2.67-2.56 18.8 18.8 0 0 0-1.7 2.03zm21.05 38.35a.5.5 0 0 1-.49-.18c-6.06-7.15-13.87-11.99-20.87-18.1.84 2.29 1.74 4.54 2.7 6.77.05-.17.23-.3.4-.18 5.68 4.16 9.33 11.27 15.43 14.83.58.34.18 1.16-.43 1.04-2.72-.52-5.12-4.14-6.83-6.07-2.77-3.13-5.45-6.31-8.4-9.26 3.04 6.97 6.68 13.68 10.76 20.14.78-.53 1.5-1.12 2.2-1.74-.58-.4-1.02-1.07-1.45-1.59l-2.22-2.68c-1.45-1.8-2.97-3.54-4.4-5.36-.19-.24.12-.58.34-.34 1.67 1.83 3.26 3.74 4.93 5.57 1 1.1 2.72 2.38 3.47 3.75 1.93-1.91 3.51-4.17 4.86-6.6zm1.88-3.73c-.24-.13-.43-.3-.84-.7a.54.54 0 0 1-.14-.29c-8.4-6.2-16.6-12.94-24.13-20.2 0 .18-.08.35-.2.49.5 1.65 1.06 3.29 1.63 4.91.07 0 .15.03.21.08 4.54 3.65 9.43 6.82 14.06 10.34 2.47 1.89 7.25 4.84 8.03 8.19.5-.93.94-1.87 1.38-2.82zm3.27-8.16l-.5-.25a.47.47 0 0 1-.26-.42c-.44-.3-.87-.62-1.3-.93-.66-.49-1.3-1.01-1.94-1.52-3.38-2.65-6.7-5.28-10.27-7.65-4.83-3.22-10.13-6.28-14.55-10.14-.21.87-.34 1.75-.38 2.65 5.89 3.56 11.57 7.58 17.2 11.51 1.57 1.1 11.89 6.9 10.8 9.67-.18.47-1.03.65-1.13 0-.22-1.55-4.3-3.96-5.36-4.78a281.8 281.8 0 0 0-8.88-6.5c-4.13-2.93-8.76-5.55-12.62-8.86.04.98.2 1.97.47 2.96a552.27 552.27 0 0 0 26.15 20.78 165.5 165.5 0 0 0 2.54-6.44l.03-.08zm3.52-8.06a.43.43 0 0 1-.44.09c-1.65-.55-3.16-2.26-4.49-3.33-1.74-1.4-3.49-2.83-5.43-3.94a8.5 8.5 0 0 1-7.02.56 7.1 7.1 0 0 1-4.56-5.42c-1.71-.18-3.45-1.6-4.76-2.62a34.01 34.01 0 0 1-3.49-3.02c-.17.26-.35.51-.5.78l.03.02c4.23 5.4 9.84 8.59 15.77 11.74 4.34 2.3 9.72 4.68 12.75 8.73.27.35-.07.77-.44.8-.01.01-.01.02-.03.02l-.02-.01a.45.45 0 0 1-.25-.07c-5.36-3.37-10.52-6.98-16-10.24-4.62-2.75-9.12-5.8-12.16-10.35-.43.83-.8 1.69-1.06 2.58 5.45 3.48 10.75 7.26 16.22 10.73 3.25 2.05 6.16 4.45 9.25 6.72 1.17.86 2.68 1.68 3.73 2.75.88-2.08 1.92-4.28 2.9-6.52zm1.28-3.17c-1.46-.8-2.66-2.15-3.93-3.25-1.5-1.3-3-2.57-4.54-3.82a8.45 8.45 0 0 1-2.5 2.65c1.86 1.05 3.61 2.34 5.33 3.6 1.42 1.04 3.18 1.98 4.4 3.25.1.1.13.22.13.35.39-.92.77-1.85 1.11-2.78zm.37-1.02c.76-2.24 1.3-4.5 1.36-6.69-3.7-2.97-7.16-6.2-10.98-9.08-2.62-1.98-5.22-4-7.72-6.15-1.1.04-2.17.16-3.2.39.8.63 1.6 1.27 2.46 1.83 1.32.87 2.75 1.44 4.12 2.21.06.04.1.08.14.13a6.99 6.99 0 0 1 6.16 6.59c1.17.95 2.33 1.91 3.52 2.85 1.62 1.27 3.44 2.48 4.84 4 .4.42-.13 1.18-.63.83-1.72-1.22-3.24-2.81-4.83-4.2l-2.9-2.56a7.77 7.77 0 0 1-.8 3.12 163.6 163.6 0 0 1 4.53 3.44c1.25.98 2.94 1.96 3.93 3.29z"/></defs><use xlink:href="#ja" transform="translate(-6 -16620)"/></symbol><symbol viewBox="0 0 19 22" id="person" xmlns="http://www.w3.org/2000/svg"><defs><path id="ka" d="M44.87 13799.56c-1.41-1.62-1.18-4.39-1.15-4.65.09-2 1.02-2.96 1.8-3.4a4.01 4.01 0 0 1 1.96-.51h.06a4 4 0 0 1 1.96.53c.76.44 1.68 1.39 1.77 3.38.03.26.26 3.03-1.14 4.65a3.34 3.34 0 0 1-2.58 1.14h-.11a3.32 3.32 0 0 1-2.57-1.14zm.73-.67c.46.53 1.07.8 1.88.8h.03c.81 0 1.42-.27 1.88-.8 1.16-1.33.9-3.86.9-3.9v-.02c-.11-2.53-1.79-2.94-2.77-2.96h-.05c-.8 0-2.65.29-2.77 2.96v.03c-.01.02-.26 2.57.9 3.9zm9.22 8.1a.5.5 0 0 1-.19.23c-.1.07-2.73 1.78-7.12 1.78-4.4 0-7.02-1.7-7.13-1.78a.47.47 0 0 1-.2-.24c-.19-.5-.18-1.5-.18-1.68v-.11c.03-.73.07-2.46 1.66-3.02h.04c1.65-.43 3.01-1.4 3.03-1.42.22-.16.53-.1.68.13.16.22.1.54-.12.7-.06.04-1.51 1.08-3.33 1.55-.85.31-.95 1.24-.97 2.09v.1c-.01.33.01.85.07 1.15.6.34 2.93 1.53 6.44 1.53 3.53 0 5.85-1.19 6.44-1.53.06-.3.08-.82.08-1.15v-.1c-.03-.85-.13-1.77-.98-2.08-1.82-.48-3.27-1.51-3.33-1.56a.51.51 0 0 1-.12-.7.49.49 0 0 1 .68-.12c.02 0 1.39.98 3.03 1.4l.04.02c1.59.55 1.63 2.28 1.66 3.01v.1c0 .2 0 1.2-.18 1.7z"/></defs><use xlink:href="#ka" transform="translate(-38 -13789)"/></symbol></svg>